<svg width="1261" height="169" viewBox="0 0 1261 169" fill="none" xmlns="http://www.w3.org/2000/svg">
<path d="M23.3271 168.063C19.9619 168.063 16.8643 167.49 14.0344 166.305C11.2046 165.158 8.71889 163.515 6.61563 161.451C4.51237 159.387 2.86801 156.941 1.72078 154.189C0.573546 151.437 0 148.379 0 145.168C0 141.919 0.573546 138.9 1.72078 136.11C2.86801 133.319 4.51237 130.911 6.61563 128.847C8.71889 126.783 11.2046 125.178 14.0344 124.031C16.8643 122.885 19.9619 122.311 23.3271 122.311C26.6923 122.311 29.7515 122.885 32.5814 124.069C35.4112 125.254 37.8969 126.86 40.0001 128.962C42.1034 131.064 43.7478 133.472 44.895 136.262C46.0805 139.053 46.654 142.034 46.654 145.206C46.654 148.455 46.0805 151.475 44.895 154.227C43.7095 157.017 42.1034 159.425 40.0001 161.489C37.8969 163.553 35.4112 165.158 32.5814 166.343C29.7515 167.49 26.6541 168.063 23.3271 168.063ZM23.3271 159.349C25.2774 159.349 27.0746 159.004 28.719 158.355C30.3633 157.705 31.8165 156.711 33.0402 155.488C34.2639 154.227 35.22 152.736 35.9083 151.016C36.5967 149.296 36.9409 147.347 36.9409 145.168C36.9409 142.301 36.329 139.817 35.1436 137.677C33.9581 135.536 32.3136 133.893 30.2869 132.746C28.2219 131.561 25.9275 130.988 23.3271 130.988C21.415 130.988 19.6177 131.332 17.9351 131.981C16.2525 132.631 14.8375 133.625 13.6138 134.848C12.3901 136.109 11.4341 137.6 10.7457 139.32C10.0574 141.04 9.71315 142.989 9.71315 145.168C9.71315 148.035 10.325 150.519 11.5105 152.66C12.696 154.8 14.3404 156.444 16.3672 157.59C18.4322 158.775 20.7267 159.349 23.3271 159.349Z" fill="white"/>
<path d="M59.1592 167.145V123.228H87.4958V131.713H68.4517V141.957H85.5455V150.098H68.4517V167.107H59.1592V167.145Z" fill="white"/>
<path d="M128.259 167.145V131.752H116.328V123.266H149.521V131.752H137.59V167.145H128.259Z" fill="white"/>
<path d="M160.154 167.145V123.228H169.447V139.893H188.07V123.228H197.363V167.145H188.07V148.378H169.447V167.145H160.154Z" fill="white"/>
<path d="M212.506 167.145V123.228H242.525V131.331H221.798V140.734H239.389V148.225H221.798V158.966H242.793V167.145H212.506Z" fill="white"/>
<path d="M276.062 167.145V123.228H285.355V143.218L301.34 123.228H312.889L296.713 143.295L315.145 167.145H303.175L290.594 150.366L285.393 156.405V167.145H276.062Z" fill="white"/>
<path d="M336.024 167.145V148.608L320.574 123.228H331.052L340.88 139.664L350.593 123.228H360.804L345.354 148.646V167.107H336.024V167.145Z" fill="white"/>
<path d="M370.518 167.145V123.228H387.917C391.091 123.228 393.883 123.763 396.254 124.795C398.625 125.865 400.46 127.356 401.761 129.344C403.061 131.331 403.673 133.701 403.673 136.453C403.673 138.632 403.252 140.543 402.372 142.186C401.531 143.83 400.346 145.206 398.854 146.276C397.363 147.346 395.642 148.149 393.692 148.646L406.005 167.107H394.915L384.323 150.442H379.772V167.107H370.518V167.145ZM379.81 142.951H386.732C389.103 142.951 390.977 142.454 392.315 141.498C393.653 140.543 394.342 139.052 394.342 137.065C394.342 135.001 393.73 133.472 392.468 132.478C391.206 131.446 389.409 130.949 387.038 130.949H379.81V142.951Z" fill="white"/>
<path d="M438.548 168.063C435.145 168.063 431.933 167.528 428.95 166.496C425.967 165.425 423.328 163.935 421.072 161.947C418.816 159.96 417.057 157.552 415.795 154.762C414.533 151.933 413.883 148.761 413.883 145.244C413.883 141.766 414.495 138.594 415.718 135.765C416.942 132.937 418.663 130.529 420.843 128.503C423.022 126.515 425.585 124.948 428.529 123.878C431.436 122.808 434.61 122.273 437.975 122.273C439.504 122.273 441.149 122.387 442.793 122.617C444.476 122.846 446.158 123.266 447.879 123.878C449.6 124.49 451.244 125.33 452.812 126.401L448.912 133.625C447.344 132.631 445.699 131.866 443.979 131.408C442.22 130.911 440.384 130.682 438.472 130.682C436.139 130.682 434.074 131.026 432.2 131.675C430.327 132.325 428.759 133.319 427.458 134.58C426.158 135.841 425.164 137.37 424.476 139.167C423.787 140.963 423.443 142.989 423.443 145.244C423.443 148.455 424.131 151.13 425.47 153.309C426.847 155.488 428.682 157.131 431.053 158.278C433.424 159.386 436.101 159.96 439.046 159.96C440.346 159.96 441.531 159.845 442.64 159.616C443.749 159.386 444.705 159.119 445.47 158.813V150.098H436.177V142.645H453.654V164.393C452.392 165.158 450.862 165.808 449.103 166.343C447.344 166.916 445.508 167.337 443.634 167.604C441.799 167.948 440.116 168.063 438.548 168.063Z" fill="white"/>
<path d="M477.286 167.145V148.608L461.837 123.228H472.315L482.143 139.664L491.856 123.228H502.066L486.617 148.646V167.107H477.286V167.145Z" fill="white"/>
<path d="M510.174 167.145V159.386L530.671 131.713H510.9V123.228H541.914V130.949L521.531 158.66H542.105V167.145H510.174Z" fill="white"/>
<path d="M573.961 167.145V123.228H591.361C594.535 123.228 597.326 123.763 599.697 124.795C602.068 125.865 603.904 127.356 605.204 129.344C606.504 131.331 607.116 133.701 607.116 136.453C607.116 138.632 606.695 140.543 605.816 142.186C604.974 143.83 603.789 145.206 602.298 146.276C600.806 147.346 599.085 148.149 597.135 148.646L609.449 167.107H598.359L587.766 150.442H583.215V167.107H573.961V167.145ZM583.253 142.951H590.175C592.546 142.951 594.42 142.454 595.758 141.498C597.097 140.543 597.785 139.052 597.785 137.065C597.785 135.001 597.173 133.472 595.911 132.478C594.649 131.446 592.852 130.949 590.481 130.949H583.253V142.951Z" fill="white"/>
<path d="M620.498 167.145V123.228H650.517V131.331H629.791V140.734H647.382V148.225H629.791V158.966H650.785V167.145H620.498Z" fill="white"/>
<path d="M662.489 167.145V123.228H679.545C682.757 123.228 685.625 123.801 688.111 124.91C690.596 126.018 692.547 127.662 693.962 129.764C695.377 131.866 696.103 134.427 696.103 137.447C696.103 140.466 695.453 143.027 694.115 145.129C692.776 147.232 690.902 148.837 688.378 149.946C685.855 151.054 682.834 151.589 679.277 151.589H671.744V167.145H662.489ZM671.782 143.754H679.162C681.572 143.754 683.445 143.257 684.784 142.301C686.122 141.346 686.811 139.778 686.811 137.6C686.811 135.421 686.122 133.854 684.746 132.822C683.369 131.79 681.533 131.255 679.239 131.255H671.82V143.754H671.782Z" fill="white"/>
<path d="M725.127 168.063C721.073 168.063 717.67 167.26 714.916 165.617C712.163 163.973 710.098 161.794 708.721 158.966C707.345 156.138 706.618 152.965 706.618 149.334V123.19H715.949V149.602C715.949 152.851 716.752 155.297 718.396 156.902C720.002 158.507 722.259 159.31 725.127 159.31C727.957 159.31 730.213 158.507 731.819 156.902C733.425 155.297 734.266 152.851 734.266 149.602V123.19H743.597V149.334C743.597 152.927 742.909 156.099 741.494 158.928C740.117 161.756 738.052 163.973 735.299 165.579C732.546 167.184 729.18 168.063 725.127 168.063Z" fill="white"/>
<path d="M758.588 167.145V123.228H774.955C779.353 123.228 782.871 124.184 785.51 126.018C788.148 127.891 789.487 130.681 789.487 134.351C789.487 135.689 789.181 136.95 788.607 138.097C788.034 139.282 787.23 140.313 786.274 141.193C785.318 142.072 784.248 142.76 783.1 143.295C785.471 144.098 787.422 145.473 788.913 147.385C790.404 149.296 791.169 151.665 791.169 154.417C791.169 156.978 790.519 159.195 789.257 161.106C787.995 163.017 786.16 164.508 783.827 165.54C781.494 166.61 778.703 167.107 775.452 167.107H758.588V167.145ZM767.88 141.498H773.655C775.07 141.498 776.255 141.269 777.288 140.81C778.32 140.352 779.085 139.702 779.659 138.823C780.232 137.944 780.5 136.912 780.5 135.689C780.5 133.93 779.888 132.554 778.703 131.599C777.517 130.643 775.796 130.185 773.54 130.185H767.919V141.498H767.88ZM767.88 160.189H774.075C776.561 160.189 778.435 159.692 779.659 158.698C780.921 157.705 781.533 156.176 781.533 154.15C781.533 152.201 780.921 150.71 779.697 149.64C778.473 148.569 776.676 148.034 774.228 148.034H767.842V160.189H767.88Z" fill="white"/>
<path d="M803.904 167.145V123.228H813.197V158.622H831.323V167.107H803.904V167.145Z" fill="white"/>
<path d="M842.488 167.145V123.228H851.781V167.145H842.488Z" fill="white"/>
<path d="M887.46 168.063C882.91 168.063 878.932 167.145 875.491 165.273C872.049 163.4 869.334 160.762 867.422 157.361C865.51 153.959 864.554 149.945 864.554 145.282C864.554 141.919 865.127 138.823 866.236 136.033C867.345 133.242 868.951 130.796 871.055 128.732C873.12 126.668 875.567 125.101 878.397 123.954C881.227 122.846 884.286 122.273 887.651 122.273C891.208 122.273 894.229 122.731 896.676 123.61C899.162 124.489 901.38 125.789 903.33 127.394L898.627 135.001C897.365 133.739 895.835 132.822 894.076 132.21C892.317 131.599 890.405 131.293 888.263 131.293C886.083 131.293 884.133 131.599 882.412 132.249C880.691 132.898 879.238 133.816 878.015 135.039C876.791 136.262 875.873 137.714 875.261 139.396C874.649 141.078 874.305 143.027 874.305 145.129C874.305 148.073 874.879 150.557 876.026 152.621C877.173 154.685 878.818 156.252 880.921 157.361C883.062 158.469 885.586 159.042 888.531 159.042C890.558 159.042 892.546 158.737 894.535 158.087C896.523 157.475 898.397 156.443 900.156 155.067L904.439 162.865C902.374 164.47 899.927 165.731 897.173 166.649C894.305 167.604 891.093 168.063 887.46 168.063Z" fill="white"/>
<path d="M5.77441 82.1011V15.1741H18.241V41.1652H48.6045V15.1741H61.0711V82.1011H48.6045V52.5553H18.241V82.1011H5.77441Z" fill="white"/>
<path d="M77.2471 82.1011V15.1741H89.7137V82.1011H77.2471Z" fill="white"/>
<path d="M139.504 83.5154C134.226 83.5154 129.331 82.7127 124.819 81.1074C120.307 79.5021 116.291 77.1705 112.888 74.1509C109.484 71.1314 106.807 67.4621 104.895 63.1812C102.983 58.9003 102.027 54.0843 102.027 48.7332C102.027 43.4204 102.945 38.6044 104.819 34.2853C106.655 30.0044 109.255 26.2969 112.544 23.2391C115.832 20.1814 119.695 17.8498 124.131 16.2063C128.567 14.5627 133.385 13.76 138.586 13.76C140.995 13.76 143.442 13.9511 145.966 14.3333C148.49 14.7155 151.014 15.3653 153.538 16.2444C156.062 17.1235 158.471 18.3466 160.766 19.9137L155.412 29.6222C153.041 28.0933 150.479 26.9467 147.725 26.2205C145.01 25.456 142.142 25.112 139.198 25.112C135.45 25.112 132.123 25.6471 129.102 26.7555C126.081 27.864 123.557 29.4311 121.454 31.4951C119.351 33.5591 117.744 36.0435 116.635 38.9484C115.526 41.8533 114.953 45.1404 114.953 48.7715C114.953 53.8933 116.062 58.2506 118.242 61.8053C120.421 65.3599 123.404 68.0737 127.228 69.9083C131.052 71.743 135.374 72.6603 140.268 72.6603C142.563 72.6603 144.666 72.431 146.54 72.0105C148.414 71.5901 149.982 71.0932 151.167 70.5581V55.8426H136.483V45.7137H162.257V77.935C160.421 79.1199 158.165 80.1136 155.488 80.9545C152.812 81.7954 150.058 82.4452 147.228 82.9038C144.322 83.2861 141.76 83.5154 139.504 83.5154Z" fill="white"/>
<path d="M176.904 82.1011V15.1741H189.371V41.1652H219.734V15.1741H232.201V82.1011H219.734V52.5553H189.371V82.1011H176.904Z" fill="white"/>
<path d="M284.361 82.1011V26.5643H265.853V15.1741H315.375V26.5643H296.866V82.1011H284.361Z" fill="white"/>
<path d="M324.554 82.1011V15.1741H369.105V26.0674H337.02V42.2736H364.477V52.4407H337.02V71.0931H369.449V82.1011H324.554Z" fill="white"/>
<path d="M411.016 83.5156C404.094 83.5156 398.014 82.1014 392.813 79.2347C387.574 76.3681 383.521 72.3547 380.614 67.1182C377.708 61.8818 376.255 55.7663 376.255 48.7334C376.255 43.6499 377.135 38.9486 378.855 34.6677C380.576 30.3868 382.985 26.6793 386.121 23.545C389.257 20.4108 392.928 18.0029 397.211 16.2829C401.494 14.5629 406.159 13.7219 411.207 13.7219C416.485 13.7219 420.997 14.3718 424.745 15.7095C428.492 17.0473 431.781 18.9202 434.687 21.3282L428.263 31.4953C426.274 29.5842 423.865 28.1317 421.15 27.2143C418.397 26.2588 415.414 25.762 412.125 25.762C408.569 25.762 405.433 26.297 402.603 27.3673C399.811 28.4375 397.402 29.9664 395.414 31.9157C393.425 33.9032 391.934 36.273 390.863 39.1015C389.792 41.9299 389.295 45.0641 389.295 48.5805C389.295 53.3965 390.251 57.4863 392.125 60.888C393.999 64.2898 396.676 66.8889 400.156 68.6854C403.635 70.52 407.727 71.3991 412.507 71.3991C415.758 71.3991 418.932 70.9023 421.991 69.9085C425.051 68.9147 427.957 67.3477 430.672 65.169L436.446 75.6418C433.272 78.1263 429.563 80.0374 425.395 81.4134C421.112 82.8276 416.37 83.5156 411.016 83.5156Z" fill="white"/>
<path d="M445.472 82.1011V15.1741H457.938V41.1652H488.302V15.1741H500.768V82.1011H488.302V52.5553H457.938V82.1011H445.472Z" fill="white"/>
<path d="M516.944 82.1011V15.1741H529.029L560.692 61.2318V15.1741H572.853V82.1011H560.769L529.105 35.47V82.1011H516.944Z" fill="white"/>
<path d="M620.424 83.5154C615.338 83.5154 610.672 82.6363 606.351 80.8781C602.03 79.1199 598.32 76.6354 595.108 73.5012C591.896 70.367 589.449 66.6595 587.689 62.4168C585.93 58.1742 585.051 53.5875 585.051 48.6568C585.051 43.688 585.93 39.1012 587.689 34.8586C589.449 30.6159 591.934 26.9084 595.108 23.7742C598.282 20.64 602.03 18.1556 606.351 16.3973C610.672 14.6391 615.338 13.76 620.424 13.76C625.51 13.76 630.175 14.6392 634.496 16.4356C638.818 18.232 642.527 20.7164 645.739 23.8889C648.952 27.0613 651.399 30.7689 653.196 35.0115C654.994 39.2159 655.873 43.7644 655.873 48.6568C655.873 53.5875 654.994 58.1742 653.196 62.4168C651.399 66.6595 648.913 70.367 645.739 73.5012C642.565 76.6354 638.818 79.1199 634.496 80.8781C630.175 82.6363 625.51 83.5154 620.424 83.5154ZM620.424 71.8194C623.598 71.8194 626.542 71.2844 629.257 70.1759C631.973 69.0675 634.344 67.5003 636.37 65.4746C638.397 63.4488 639.965 61.0026 641.112 58.1741C642.259 55.3075 642.795 52.1351 642.795 48.6568C642.795 43.9555 641.801 39.9039 639.85 36.4257C637.9 32.9475 635.223 30.272 631.858 28.3609C628.493 26.4498 624.669 25.4942 620.424 25.4942C617.25 25.4942 614.343 26.0293 611.628 27.1378C608.913 28.2462 606.542 29.8134 604.515 31.8391C602.489 33.8649 600.921 36.3111 599.774 39.1396C598.626 41.968 598.091 45.1786 598.091 48.6568C598.091 53.3582 599.085 57.4096 601.036 60.8879C602.986 64.3661 605.663 67.0417 609.028 68.9528C612.431 70.8639 616.217 71.8194 620.424 71.8194Z" fill="white"/>
<path d="M667.881 82.1011V15.1741H680.347V70.7108H708.761V82.1011H667.881Z" fill="white"/>
<path d="M746.085 83.5154C740.999 83.5154 736.333 82.6363 732.012 80.8781C727.691 79.1199 723.981 76.6354 720.769 73.5012C717.557 70.367 715.11 66.6595 713.35 62.4168C711.591 58.1742 710.712 53.5875 710.712 48.6568C710.712 43.688 711.591 39.1012 713.35 34.8586C715.11 30.6159 717.595 26.9084 720.769 23.7742C723.943 20.64 727.691 18.1556 732.012 16.3973C736.333 14.6391 740.999 13.76 746.085 13.76C751.171 13.76 755.836 14.6392 760.158 16.4356C764.479 18.232 768.188 20.7164 771.4 23.8889C774.613 27.0613 777.06 30.7689 778.857 35.0115C780.655 39.2159 781.534 43.7644 781.534 48.6568C781.534 53.5875 780.655 58.1742 778.857 62.4168C777.06 66.6595 774.575 70.367 771.4 73.5012C768.226 76.6354 764.479 79.1199 760.158 80.8781C755.836 82.6363 751.133 83.5154 746.085 83.5154ZM746.085 71.8194C749.259 71.8194 752.203 71.2844 754.919 70.1759C757.634 69.0675 760.005 67.5003 762.031 65.4746C764.058 63.4488 765.626 61.0026 766.773 58.1741C767.92 55.3075 768.456 52.1351 768.456 48.6568C768.456 43.9555 767.462 39.9039 765.511 36.4257C763.561 32.9475 760.884 30.272 757.519 28.3609C754.154 26.4498 750.33 25.4942 746.085 25.4942C742.911 25.4942 740.005 26.0293 737.289 27.1378C734.574 28.2462 732.203 29.8134 730.177 31.8391C728.15 33.8649 726.582 36.3111 725.435 39.1396C724.287 41.968 723.752 45.1786 723.752 48.6568C723.752 53.3582 724.746 57.4096 726.697 60.8879C728.647 64.3661 731.324 67.0417 734.689 68.9528C738.092 70.8639 741.878 71.8194 746.085 71.8194Z" fill="white"/>
<path d="M827.04 83.5154C821.762 83.5154 816.868 82.7127 812.355 81.1074C807.843 79.5021 803.827 77.1705 800.424 74.1509C797.02 71.1314 794.344 67.4621 792.432 63.1812C790.52 58.9003 789.563 54.0843 789.563 48.7332C789.563 43.4204 790.481 38.6044 792.355 34.2853C794.191 30.0044 796.791 26.2969 800.08 23.2391C803.369 20.1814 807.231 17.8498 811.667 16.2063C816.103 14.5627 820.921 13.76 826.122 13.76C828.531 13.76 830.979 13.9511 833.502 14.3333C836.026 14.7155 838.55 15.3653 841.074 16.2444C843.598 17.1235 846.007 18.3466 848.302 19.9137L842.948 29.6222C840.577 28.0933 838.015 26.9467 835.261 26.2205C832.546 25.456 829.678 25.112 826.734 25.112C822.986 25.112 819.659 25.6471 816.638 26.7555C813.617 27.864 811.093 29.4311 808.99 31.4951C806.887 33.5591 805.28 36.0435 804.171 38.9484C803.062 41.8533 802.489 45.1404 802.489 48.7715C802.489 53.8933 803.598 58.2506 805.778 61.8053C807.957 65.3599 810.94 68.0737 814.764 69.9083C818.588 71.743 822.91 72.6603 827.805 72.6603C830.099 72.6603 832.202 72.431 834.076 72.0105C835.95 71.5901 837.518 71.0932 838.703 70.5581V55.8426H824.019V45.7137H849.793V77.935C847.958 79.1199 845.701 80.1136 843.024 80.9545C840.348 81.7954 837.594 82.4452 834.764 82.9038C831.858 83.2861 829.334 83.5154 827.04 83.5154Z" fill="white"/>
<path d="M878.781 82.1011V53.5109L855.225 15.1741H869.374L885.359 41.5473L901.152 15.1741H914.919L891.362 53.5874V82.0628H878.781V82.1011Z" fill="white"/>
<path d="M946.505 82.1011V15.1741H971.668C976.486 15.1741 980.769 16.015 984.478 17.6967C988.226 19.3785 991.132 21.7866 993.235 24.9208C995.339 28.0932 996.41 31.8771 996.41 36.3109C996.41 40.8211 995.415 44.6433 993.465 47.7775C991.515 50.9118 988.647 53.2816 984.937 54.8869C981.19 56.5305 976.677 57.3331 971.362 57.3331H958.972V82.1011H946.505ZM958.972 46.7839H971.323C975.3 46.7839 978.398 45.9429 980.616 44.2993C982.834 42.6558 983.943 40.0567 983.943 36.5402C983.943 33.062 982.796 30.4247 980.539 28.6665C978.245 26.87 975.224 25.991 971.438 25.991H959.01V46.7839H958.972Z" fill="white"/>
<path d="M993.963 82.1011L1019.62 15.1741H1033.54L1059.74 82.1011H1045.66L1039.97 66.9651H1013.08L1007.58 82.1011H993.963ZM1016.22 56.3775H1036.87L1026.39 29.2398L1016.22 56.3775Z" fill="white"/>
<path d="M1068.19 82.1011V15.1741H1094.16C1098.9 15.1741 1103.03 15.9768 1106.55 17.5821C1110.06 19.1874 1112.78 21.4807 1114.69 24.5003C1116.6 27.4816 1117.56 31.0744 1117.56 35.2024C1117.56 38.5278 1116.87 41.4327 1115.49 43.9553C1114.12 46.478 1112.24 48.5803 1109.83 50.2238C1107.42 51.8674 1104.63 53.0141 1101.5 53.702L1120.96 82.1011H1106.01L1088.76 55.9189H1080.73V82.1011H1068.19ZM1080.69 45.7135H1092.36C1096.3 45.7135 1099.39 44.8727 1101.65 43.2291C1103.87 41.5856 1105.02 39.1011 1105.02 35.8523C1105.02 32.5269 1104.02 30.0043 1101.99 28.2461C1099.97 26.4879 1096.98 25.6088 1093.05 25.6088H1080.77V45.7135H1080.69Z" fill="white"/>
<path d="M1130.91 82.1011V15.1741H1143.37V47.5482L1169.34 15.1741H1184.79L1160.2 45.5989L1188.31 82.0628H1172.24L1152.01 55.078L1143.37 65.2068V82.0628H1130.91V82.1011Z" fill="white"/>
<path d="M1218.44 0L1195 89.5927H1210.29L1233.73 0H1218.44Z" fill="#38B5AA"/>
<path d="M1245.7 0L1222.26 89.5927H1237.56L1261 0H1245.7Z" fill="#38B5AA"/>
</svg>
