<svg width="661" height="334" viewBox="0 0 661 334" fill="none" xmlns="http://www.w3.org/2000/svg">
<path d="M99.6025 144.549H111.377V172.601H111.949L139.334 144.549H155.231L124.295 175.103L157.281 210.71H140.74L112.044 178.178H111.377V210.71H99.6025V144.525V144.549Z" fill="#FAFAFA"/>
<path d="M219.35 206.015C211.175 210.377 202.046 212.546 191.965 212.546C186.864 212.546 182.169 211.711 177.902 210.067C173.636 208.422 169.966 206.087 166.867 203.06C163.769 200.033 161.362 196.41 159.622 192.168C157.882 187.926 157 183.231 157 178.059C157 172.887 157.882 167.953 159.622 163.616C161.362 159.278 163.769 155.584 166.867 152.533C169.942 149.483 173.636 147.123 177.902 145.479C182.169 143.834 186.864 143 191.965 143C197.065 143 201.736 143.596 206.17 144.811C210.603 146.027 214.559 148.196 218.039 151.318L209.34 160.112C207.218 158.063 204.644 156.466 201.617 155.346C198.59 154.225 195.397 153.653 192.036 153.653C188.675 153.653 185.506 154.249 182.741 155.465C179.976 156.68 177.593 158.372 175.591 160.517C173.588 162.662 172.063 165.165 170.967 168.049C169.87 170.933 169.322 174.007 169.322 177.296C169.322 180.847 169.87 184.112 170.967 187.115C172.063 190.095 173.588 192.692 175.591 194.861C177.593 197.054 179.976 198.746 182.741 200.009C185.506 201.249 188.604 201.868 192.036 201.868C195.039 201.868 197.852 201.582 200.497 201.034C203.143 200.462 205.502 199.604 207.552 198.412V182.802H193.99V172.148H219.326V205.991L219.35 206.015Z" fill="#FAFAFA"/>
<path d="M276.594 160.064C274.163 157.443 271.803 155.703 269.539 154.821C267.275 153.939 264.987 153.51 262.675 153.51C259.243 153.51 256.144 154.106 253.379 155.321C250.615 156.537 248.231 158.229 246.229 160.374C244.227 162.519 242.702 165.022 241.605 167.905C240.509 170.765 239.961 173.864 239.961 177.153C239.961 180.704 240.509 183.969 241.605 186.972C242.702 189.951 244.227 192.549 246.229 194.718C248.231 196.91 250.615 198.603 253.379 199.866C256.144 201.105 259.243 201.725 262.675 201.725C265.344 201.725 267.966 201.081 270.492 199.818C273.019 198.531 275.378 196.505 277.547 193.693L287.272 200.605C284.268 204.728 280.646 207.707 276.332 209.566C272.042 211.425 267.442 212.378 262.603 212.378C257.503 212.378 252.807 211.544 248.541 209.9C244.275 208.255 240.604 205.919 237.506 202.893C234.408 199.866 232 196.243 230.26 192.001C228.52 187.759 227.639 183.063 227.639 177.892C227.639 172.72 228.52 167.786 230.26 163.449C232 159.111 234.408 155.417 237.506 152.366C240.581 149.315 244.275 146.956 248.541 145.311C252.807 143.667 257.503 142.833 262.603 142.833C267.084 142.833 271.255 143.619 275.092 145.216C278.93 146.813 282.481 149.506 285.794 153.296L276.642 160.017L276.594 160.064Z" fill="#FAFAFA"/>
<path d="M291.634 177.916C291.634 172.625 292.516 167.81 294.256 163.473C295.996 159.135 298.403 155.441 301.501 152.39C304.576 149.34 308.27 146.98 312.536 145.336C316.803 143.691 321.498 142.857 326.598 142.857C331.77 142.785 336.513 143.548 340.803 145.145C345.094 146.742 348.812 149.054 351.934 152.104C355.056 155.155 357.487 158.825 359.227 163.139C360.967 167.429 361.849 172.243 361.849 177.534C361.849 182.825 360.967 187.401 359.227 191.644C357.487 195.886 355.056 199.532 351.934 202.583C348.812 205.634 345.117 208.017 340.803 209.733C336.49 211.449 331.77 212.331 326.598 212.402C321.498 212.402 316.803 211.568 312.536 209.924C308.27 208.279 304.6 205.944 301.501 202.917C298.403 199.89 295.996 196.267 294.256 192.025C292.516 187.783 291.634 183.088 291.634 177.916ZM303.98 177.153C303.98 180.704 304.528 183.969 305.624 186.972C306.721 189.951 308.246 192.549 310.248 194.718C312.25 196.911 314.634 198.603 317.398 199.866C320.163 201.105 323.262 201.725 326.694 201.725C330.126 201.725 333.248 201.105 336.037 199.866C338.849 198.627 341.233 196.911 343.235 194.718C345.237 192.549 346.762 189.951 347.858 186.972C348.955 183.969 349.503 180.704 349.503 177.153C349.503 173.84 348.955 170.766 347.858 167.906C346.762 165.046 345.237 162.519 343.235 160.374C341.233 158.229 338.849 156.537 336.037 155.322C333.224 154.106 330.126 153.51 326.694 153.51C323.262 153.51 320.163 154.106 317.398 155.322C314.634 156.537 312.25 158.229 310.248 160.374C308.246 162.519 306.721 165.022 305.624 167.906C304.528 170.766 303.98 173.864 303.98 177.153Z" fill="#FAFAFA"/>
<path d="M373.051 144.549H399.125C403.487 144.549 407.682 145.216 411.733 146.551C415.785 147.886 419.36 149.935 422.483 152.676C425.605 155.417 428.084 158.873 429.967 162.996C431.826 167.143 432.779 172.005 432.779 177.63C432.779 183.254 431.706 188.212 429.561 192.359C427.416 196.506 424.628 199.938 421.243 202.631C417.835 205.348 414.069 207.374 409.946 208.708C405.799 210.043 401.723 210.71 397.743 210.71H373.074V144.525L373.051 144.549ZM393.62 200.057C397.29 200.057 400.77 199.628 404.035 198.794C407.3 197.959 410.16 196.649 412.591 194.861C415.023 193.074 416.929 190.786 418.336 187.95C419.742 185.113 420.433 181.681 420.433 177.63C420.433 173.578 419.813 170.218 418.574 167.358C417.334 164.498 415.595 162.162 413.378 160.398C411.161 158.611 408.54 157.324 405.537 156.466C402.51 155.632 399.197 155.203 395.574 155.203H384.825V200.057H393.62Z" fill="#FAFAFA"/>
<path d="M444.005 144.549H487.836V155.203H455.779V171.457H486.167V182.11H455.779V200.057H489.528V210.71H444.005V144.525V144.549Z" fill="#FAFAFA"/>
<path d="M547.302 191.286C547.302 194.837 546.635 197.935 545.324 200.581C544.013 203.226 542.273 205.419 540.056 207.159C537.84 208.923 535.266 210.233 532.334 211.091C529.402 211.973 526.328 212.402 523.086 212.402C518.963 212.402 515.007 211.711 511.217 210.353C507.404 208.97 504.138 206.682 501.397 203.417L510.288 194.837C511.718 197.006 513.6 198.698 515.936 199.914C518.272 201.129 520.751 201.749 523.372 201.749C524.731 201.749 526.113 201.558 527.472 201.177C528.854 200.819 530.094 200.247 531.214 199.508C532.334 198.746 533.24 197.816 533.931 196.648C534.622 195.504 534.956 194.17 534.956 192.668C534.956 190.237 534.169 188.378 532.62 187.067C531.071 185.757 529.14 184.66 526.828 183.755C524.516 182.849 521.99 181.991 519.249 181.181C516.508 180.37 513.982 179.274 511.694 177.868C509.382 176.462 507.451 174.603 505.878 172.267C504.329 169.931 503.543 166.785 503.543 162.853C503.543 159.445 504.257 156.466 505.664 153.987C507.046 151.484 508.881 149.411 511.169 147.766C513.434 146.122 516.032 144.883 518.963 144.072C521.895 143.262 524.898 142.857 527.949 142.857C531.428 142.857 534.813 143.381 538.078 144.454C541.367 145.502 544.299 147.242 546.92 149.673L538.316 158.754C537.077 156.942 535.409 155.607 533.311 154.773C531.238 153.939 529.045 153.51 526.733 153.51C525.351 153.51 524.04 153.677 522.753 153.987C521.49 154.297 520.322 154.797 519.297 155.488C518.272 156.156 517.438 157.061 516.818 158.134C516.198 159.23 515.889 160.517 515.889 162.019C515.889 164.259 516.675 165.975 518.224 167.167C519.774 168.358 521.704 169.383 524.016 170.241C526.328 171.123 528.854 171.957 531.595 172.768C534.336 173.578 536.863 174.698 539.174 176.128C541.462 177.582 543.393 179.465 544.966 181.848C546.515 184.207 547.302 187.353 547.302 191.286Z" fill="#FAFAFA"/>
<path d="M585.269 103.866L595.494 140.712L586.056 140.402L580.741 119.929C580.669 119.643 580.264 119.643 580.193 119.929L574.735 140.593L565.916 140.426L576.141 103.89H585.269V103.866Z" fill="#E02B41"/>
<path d="M88.2101 112.398H78.3189L52.6973 224.319H62.5884L88.2101 112.398Z" fill="#E02B41"/>
<path d="M0 165.546L27.2424 115.448L40.6848 115.639L12.5129 168.287L41.09 221.268H27.5284L0.0476783 170.313V165.57L0 165.546Z" fill="#E02B41"/>
<path d="M660.084 170.551L632.604 221.507H619.042L647.619 168.525L619.042 115.139L632.866 115.663L660.108 165.761V170.503L660.084 170.551Z" fill="#E02B41"/>
<path fill-rule="evenodd" clip-rule="evenodd" d="M409.313 61.3947L412.363 2.57416C412.363 2.31199 412.196 2.07367 411.91 2.026C411.624 1.97834 411.386 2.169 411.315 2.43116L396.228 59.1305C396.18 59.3212 396.132 59.5119 396.108 59.6787C395.536 63.3014 398.015 66.7095 401.638 67.2815C405.261 67.8535 408.669 65.3749 409.241 61.7522C409.241 61.633 409.265 61.5139 409.289 61.3947" fill="#F6EB16"/>
<path fill-rule="evenodd" clip-rule="evenodd" d="M425.567 66.3758L437.842 8.77074C437.889 8.50858 437.746 8.24642 437.484 8.15109C437.222 8.05576 436.936 8.19877 436.84 8.46094L413.03 62.0858C412.959 62.2765 412.887 62.4433 412.84 62.6102C411.696 66.0898 413.626 69.8555 417.106 70.9756C420.586 72.1196 424.351 70.1892 425.472 66.7095C425.519 66.5903 425.543 66.4712 425.567 66.3758Z" fill="#F6EB16"/>
<path fill-rule="evenodd" clip-rule="evenodd" d="M440.821 73.8356L462.01 18.876C462.105 18.6377 462.01 18.3517 461.772 18.2087C461.533 18.0895 461.223 18.161 461.08 18.3994L429.119 67.5913C429.024 67.7581 428.928 67.9249 428.833 68.0918C427.165 71.3569 428.452 75.3609 431.741 77.0293C435.006 78.6976 439.01 77.4106 440.678 74.1216C440.726 74.0263 440.774 73.9071 440.821 73.8118" fill="#F6EB16"/>
<path fill-rule="evenodd" clip-rule="evenodd" d="M454.717 83.5833L484.247 32.6278C484.39 32.3895 484.319 32.1035 484.104 31.9366C483.89 31.7698 483.58 31.8175 483.389 32.032L444.11 75.623C443.991 75.766 443.872 75.909 443.753 76.0759C441.584 79.0312 442.251 83.202 445.207 85.3708C448.162 87.5397 452.333 86.8724 454.502 83.9171C454.574 83.8217 454.645 83.7264 454.693 83.6311" fill="#F6EB16"/>
<path fill-rule="evenodd" clip-rule="evenodd" d="M466.896 95.3811L504.006 49.6212C504.173 49.4067 504.173 49.1207 503.958 48.93C503.768 48.7393 503.458 48.7155 503.243 48.9062L457.672 85.8478C457.529 85.9669 457.386 86.11 457.243 86.2291C454.645 88.8269 454.645 93.0216 457.243 95.6194C459.841 98.2173 464.036 98.2173 466.634 95.6194C466.729 95.5241 466.801 95.4526 466.872 95.3572" fill="#F6EB16"/>
<path fill-rule="evenodd" clip-rule="evenodd" d="M477.12 108.918L520.879 69.4979C521.07 69.3311 521.118 69.0212 520.951 68.8067C520.784 68.5922 520.474 68.5208 520.26 68.6638L469.493 98.0741C469.326 98.1694 469.159 98.2886 469.016 98.3839C466.037 100.553 465.394 104.7 467.563 107.679C469.731 110.634 473.879 111.301 476.858 109.133C476.953 109.061 477.049 108.99 477.144 108.918" fill="#F6EB16"/>
<path fill-rule="evenodd" clip-rule="evenodd" d="M485.105 123.91L534.513 91.83C534.728 91.687 534.823 91.4009 534.704 91.1626C534.585 90.9243 534.275 90.8052 534.037 90.9243L479.29 112.017C479.099 112.088 478.932 112.16 478.766 112.255C475.5 113.923 474.189 117.927 475.858 121.193C477.526 124.458 481.53 125.769 484.796 124.1C484.891 124.053 485.01 123.981 485.105 123.933" fill="#F6EB16"/>
<path fill-rule="evenodd" clip-rule="evenodd" d="M490.611 139.949L544.452 116.044C544.691 115.949 544.834 115.663 544.738 115.401C544.643 115.139 544.381 114.996 544.119 115.043L486.726 127.27C486.536 127.318 486.345 127.365 486.178 127.413C482.698 128.557 480.768 132.299 481.912 135.778C483.056 139.258 486.798 141.188 490.278 140.044C490.397 139.997 490.516 139.973 490.611 139.925" fill="#F6EB16"/>
<path fill-rule="evenodd" clip-rule="evenodd" d="M469.303 235.831L520.26 265.36C520.499 265.503 520.785 265.432 520.952 265.217C521.119 265.003 521.071 264.693 520.856 264.502L477.264 225.225C477.121 225.106 476.978 224.987 476.811 224.867C473.832 222.699 469.685 223.366 467.516 226.321C465.347 229.3 466.014 233.447 468.97 235.616C469.065 235.688 469.16 235.759 469.256 235.807" fill="#F6EB16"/>
<path fill-rule="evenodd" clip-rule="evenodd" d="M457.529 248.033L503.29 285.141C503.505 285.308 503.791 285.308 503.982 285.094C504.172 284.903 504.196 284.593 503.982 284.379L467.039 238.809C466.92 238.666 466.777 238.524 466.657 238.381C464.06 235.783 459.865 235.783 457.267 238.381C454.669 240.978 454.669 245.173 457.267 247.771C457.362 247.866 457.434 247.938 457.529 248.009" fill="#F6EB16"/>
<path fill-rule="evenodd" clip-rule="evenodd" d="M443.967 258.234L483.389 301.992C483.556 302.182 483.866 302.23 484.08 302.063C484.295 301.896 484.366 301.587 484.223 301.372L454.812 250.607C454.717 250.44 454.597 250.274 454.502 250.131C452.333 247.151 448.186 246.508 445.207 248.677C442.228 250.846 441.584 254.993 443.753 257.972C443.824 258.067 443.896 258.162 443.967 258.258" fill="#F6EB16"/>
<path fill-rule="evenodd" clip-rule="evenodd" d="M429 266.218L461.08 315.624C461.223 315.839 461.509 315.934 461.748 315.815C461.986 315.696 462.105 315.386 461.986 315.148L440.893 260.403C440.821 260.212 440.75 260.045 440.655 259.878C438.986 256.613 434.982 255.302 431.717 256.971C428.451 258.639 427.141 262.643 428.809 265.908C428.857 266.027 428.928 266.123 428.976 266.218" fill="#F6EB16"/>
<path fill-rule="evenodd" clip-rule="evenodd" d="M412.935 271.747L436.841 325.586C436.936 325.825 437.222 325.968 437.484 325.872C437.747 325.777 437.89 325.515 437.818 325.253L425.591 267.862C425.544 267.671 425.496 267.481 425.448 267.314C424.304 263.834 420.562 261.904 417.082 263.048C413.603 264.192 411.672 267.934 412.816 271.413C412.864 271.532 412.888 271.652 412.935 271.747Z" fill="#F6EB16"/>
<path fill-rule="evenodd" clip-rule="evenodd" d="M396.204 274.679L411.339 331.593C411.411 331.855 411.649 332.022 411.935 331.974C412.221 331.926 412.388 331.688 412.364 331.402L409.337 272.82C409.337 272.629 409.289 272.438 409.265 272.248C408.693 268.625 405.285 266.146 401.662 266.718C398.04 267.29 395.561 270.698 396.133 274.321C396.133 274.44 396.181 274.559 396.204 274.679Z" fill="#F6EB16"/>
<path fill-rule="evenodd" clip-rule="evenodd" d="M379.234 274.941L385.36 333.523C385.384 333.786 385.598 334 385.884 334C386.17 334 386.385 333.786 386.408 333.523L392.51 275.179C392.51 274.989 392.534 274.798 392.534 274.607C392.534 270.937 389.554 267.958 385.884 267.958C382.214 267.958 379.234 270.937 379.234 274.607C379.234 274.727 379.234 274.846 379.234 274.965V274.941Z" fill="#F6EB16"/>
<path fill-rule="evenodd" clip-rule="evenodd" d="M362.431 272.605L359.38 331.426C359.38 331.688 359.547 331.926 359.833 331.974C360.119 332.022 360.357 331.831 360.429 331.569L375.516 274.869C375.563 274.679 375.587 274.488 375.635 274.321C376.207 270.698 373.728 267.29 370.105 266.718C366.482 266.146 363.074 268.625 362.502 272.248C362.502 272.367 362.478 272.486 362.454 272.605" fill="#F6EB16"/>
<path fill-rule="evenodd" clip-rule="evenodd" d="M346.2 267.648L333.925 325.253C333.877 325.515 334.02 325.777 334.283 325.872C334.545 325.968 334.831 325.825 334.926 325.563L358.736 271.938C358.808 271.747 358.879 271.58 358.927 271.413C360.071 267.934 358.141 264.168 354.661 263.048C351.181 261.904 347.415 263.834 346.295 267.314C346.247 267.433 346.223 267.552 346.2 267.648Z" fill="#F6EB16"/>
<path fill-rule="evenodd" clip-rule="evenodd" d="M330.946 260.188L309.757 315.147C309.662 315.386 309.757 315.672 309.996 315.791C310.234 315.91 310.544 315.839 310.687 315.6L342.648 266.408C342.744 266.242 342.839 266.075 342.934 265.908C344.603 262.643 343.316 258.639 340.026 256.97C336.761 255.302 332.757 256.589 331.089 259.878C331.041 259.973 330.993 260.093 330.946 260.188Z" fill="#F6EB16"/>
<path fill-rule="evenodd" clip-rule="evenodd" d="M317.05 250.441L287.52 301.396C287.377 301.634 287.448 301.92 287.663 302.087C287.877 302.254 288.187 302.206 288.378 301.992L327.656 258.401C327.775 258.258 327.895 258.115 328.014 257.948C330.183 254.969 329.515 250.822 326.56 248.653C323.581 246.484 319.434 247.152 317.265 250.107C317.193 250.202 317.122 250.298 317.074 250.393" fill="#F6EB16"/>
<path fill-rule="evenodd" clip-rule="evenodd" d="M304.848 238.643L267.738 284.403C267.571 284.617 267.571 284.903 267.786 285.094C267.976 285.284 268.286 285.308 268.501 285.118L314.071 248.176C314.214 248.057 314.357 247.914 314.5 247.795C317.098 245.197 317.098 241.002 314.5 238.404C311.902 235.807 307.708 235.807 305.11 238.404C305.014 238.5 304.943 238.571 304.871 238.667" fill="#F6EB16"/>
<path fill-rule="evenodd" clip-rule="evenodd" d="M294.648 225.106L250.888 264.526C250.698 264.693 250.65 265.003 250.817 265.217C250.984 265.432 251.294 265.503 251.508 265.36L302.275 235.95C302.441 235.854 302.608 235.735 302.751 235.64C305.731 233.471 306.374 229.324 304.205 226.345C302.036 223.366 297.889 222.722 294.91 224.891C294.815 224.963 294.719 225.034 294.624 225.106" fill="#F6EB16"/>
<path fill-rule="evenodd" clip-rule="evenodd" d="M285.232 127.341L227.625 115.067C227.363 115.02 227.101 115.163 227.03 115.425C226.934 115.687 227.077 115.973 227.339 116.068L280.966 139.902C281.157 139.973 281.324 140.045 281.491 140.092C284.97 141.236 288.736 139.306 289.856 135.826C291 132.346 289.07 128.581 285.59 127.461C285.471 127.413 285.352 127.389 285.256 127.365" fill="#F6EB16"/>
<path fill-rule="evenodd" clip-rule="evenodd" d="M292.693 112.088L237.732 90.9003C237.493 90.805 237.207 90.9003 237.064 91.1386C236.945 91.377 237.017 91.6868 237.255 91.8298L286.449 123.79C286.615 123.886 286.782 123.981 286.949 124.076C290.214 125.745 294.219 124.458 295.887 121.169C297.555 117.903 296.268 113.899 292.979 112.231C292.884 112.183 292.765 112.136 292.669 112.088" fill="#F6EB16"/>
<path fill-rule="evenodd" clip-rule="evenodd" d="M302.44 98.1932L251.483 68.6638C251.245 68.5208 250.959 68.5922 250.792 68.8067C250.625 69.0212 250.673 69.3311 250.887 69.5218L294.48 108.799C294.623 108.918 294.766 109.037 294.932 109.157C297.912 111.325 302.059 110.658 304.228 107.703C306.397 104.723 305.729 100.577 302.774 98.4077C302.679 98.3362 302.583 98.2647 302.488 98.2171" fill="#F6EB16"/>
<path fill-rule="evenodd" clip-rule="evenodd" d="M314.238 85.9907L268.477 48.8823C268.263 48.7155 267.977 48.7155 267.786 48.93C267.595 49.1206 267.571 49.4305 267.786 49.645L304.729 95.2142C304.848 95.3572 304.991 95.5002 305.11 95.6432C307.708 98.241 311.903 98.241 314.501 95.6432C317.099 93.0454 317.099 88.8507 314.501 86.2529C314.405 86.1575 314.334 86.0861 314.238 86.0146" fill="#F6EB16"/>
<path fill-rule="evenodd" clip-rule="evenodd" d="M327.8 75.7661L288.378 32.0082C288.211 31.8175 287.902 31.7699 287.687 31.9367C287.473 32.1035 287.401 32.4134 287.544 32.6279L316.955 83.3928C317.051 83.5596 317.17 83.7264 317.265 83.8694C319.434 86.8486 323.581 87.4921 326.56 85.3233C329.54 83.1545 330.183 79.0075 328.014 76.0283C327.943 75.933 327.871 75.8376 327.8 75.7423" fill="#F6EB16"/>
<path fill-rule="evenodd" clip-rule="evenodd" d="M342.767 67.782L310.687 18.3756C310.544 18.1611 310.258 18.0658 310.019 18.185C309.781 18.3041 309.662 18.614 309.781 18.8523L330.874 73.5974C330.946 73.788 331.017 73.9549 331.113 74.1217C332.781 77.3869 336.785 78.6977 340.05 77.0293C343.316 75.361 344.627 71.357 342.958 68.0918C342.911 67.9727 342.839 67.8774 342.791 67.782" fill="#F6EB16"/>
<path fill-rule="evenodd" clip-rule="evenodd" d="M358.832 62.2765L334.926 8.43707C334.831 8.19873 334.545 8.05575 334.283 8.15108C334.02 8.24641 333.878 8.50856 333.949 8.77073L346.176 66.1613C346.224 66.352 346.271 66.5426 346.319 66.7095C347.463 70.1891 351.205 72.1196 354.685 70.9756C358.164 69.8316 360.095 66.0898 358.951 62.6102C358.903 62.491 358.879 62.3718 358.832 62.2765Z" fill="#F6EB16"/>
<path fill-rule="evenodd" clip-rule="evenodd" d="M375.564 59.3451L360.429 2.4312C360.358 2.16904 360.12 2.0022 359.834 2.04986C359.548 2.09753 359.381 2.33588 359.405 2.62188L362.431 61.2041C362.431 61.3947 362.479 61.5854 362.503 61.7761C363.075 65.3987 366.483 67.8774 370.106 67.3054C373.729 66.7334 376.208 63.3252 375.636 59.7026C375.636 59.5834 375.588 59.4642 375.564 59.3451Z" fill="#F6EB16"/>
<path fill-rule="evenodd" clip-rule="evenodd" d="M392.509 59.0589L386.384 0.476659C386.36 0.214492 386.146 0 385.86 0C385.574 0 385.359 0.214492 385.335 0.476659L379.234 58.8205C379.234 59.0112 379.21 59.2019 379.21 59.3926C379.21 63.0629 382.189 66.0421 385.86 66.0421C389.53 66.0421 392.509 63.0629 392.509 59.3926C392.509 59.2734 392.509 59.1542 392.509 59.0351V59.0589Z" fill="#F6EB16"/>
</svg>
