<svg width="473" height="473" viewBox="0 0 473 473" fill="none" xmlns="http://www.w3.org/2000/svg">
<path fill-rule="evenodd" clip-rule="evenodd" d="M0 21.4545V450.832C0 465.135 7.1492 472.286 21.4476 472.286H450.686C464.985 472.286 472.134 465.135 472.134 450.832V21.4545C472.134 7.15145 464.985 0 450.686 0H21.4476C7.1492 0 0 7.15145 0 21.4545Z" fill="white"/>
<path d="M233.078 98.8025C159.754 98.8025 98.8809 152.084 87.014 222.05L82.6419 223.169L76.971 225.006L66.1475 229.575C76.3157 228.443 86.1754 225.283 85.2039 237.602L85.2114 237.653C85.0173 240.75 84.908 243.872 84.908 247.019C84.908 304.859 118.031 354.954 166.334 379.375L154.906 384.118L139.691 388.305L125.248 391.673C138.833 389.788 173.791 383.001 183.259 386.65L183.252 386.638C198.824 392.199 215.594 395.236 233.075 395.236C314.907 395.236 381.243 328.879 381.243 247.021C381.243 204.249 363.126 165.717 334.157 138.665L334.168 138.661L334.039 138.554C333.368 137.928 332.692 137.307 332.008 136.693C318.342 121.992 350.378 99.8664 359.651 93.3198L346.628 100.388L336.135 108.104L325.14 118.036L317.606 125.288C293.631 108.598 264.502 98.8025 233.078 98.8025Z" fill="url(#paint0_linear_2113_4)"/>
<path d="M233.078 98.8025C151.246 98.8025 84.9102 165.16 84.9102 247.019C84.9102 328.877 151.246 395.235 233.078 395.235C314.91 395.235 381.247 328.877 381.247 247.019C381.247 165.16 314.91 98.8025 233.078 98.8025Z" fill="url(#paint1_linear_2113_4)"/>
<path d="M233.078 125.539C172.853 125.539 124.031 168.701 124.031 221.946C124.031 275.189 172.853 318.351 233.078 318.351C293.304 318.351 342.124 275.189 342.124 221.946C342.124 168.701 293.304 125.539 233.078 125.539Z" fill="url(#paint2_linear_2113_4)"/>
<path fill-rule="evenodd" clip-rule="evenodd" d="M239.321 160.022C220.167 160.022 204.64 173.811 204.64 190.821C204.64 207.831 220.167 221.62 239.321 221.62C258.476 221.62 274.003 207.831 274.003 190.821C274.003 173.811 258.476 160.022 239.321 160.022Z" fill="#C2CFFF"/>
<path fill-rule="evenodd" clip-rule="evenodd" d="M289.564 103.678C342.471 73.3618 374.496 85.4854 415.073 30.7263C359.445 58.1609 335.074 32.8118 289.564 103.678Z" fill="white"/>
<path fill-rule="evenodd" clip-rule="evenodd" d="M328.487 74.7199C343.891 70.2537 359.106 71.6861 362.053 60.1423C349.338 64.131 332.191 63.3196 328.487 74.7199Z" fill="#FF0000"/>
<path fill-rule="evenodd" clip-rule="evenodd" d="M97.6796 395.381C142.148 367.831 189.278 356.748 186.014 290.393C183.437 238.02 121.022 195.948 57.0625 234.529C93.2984 173.777 167.116 183.663 204.068 228.487C196.785 212.661 182.159 198.782 210.987 148.313C243.175 176.405 239.622 197.045 232.831 228.186C234.663 222.249 236.692 215.98 238.963 209.333C258.796 151.3 287.371 102.321 359.993 93.1545C311.912 116.123 296.735 152.932 281.979 194.916C239.617 315.498 232.417 382.42 97.6796 395.381Z" fill="white"/>
<path fill-rule="evenodd" clip-rule="evenodd" d="M306.923 135.856C295.153 153.357 287.619 173.181 280.198 194.295C275.748 206.962 271.678 219.059 267.81 230.559C245.152 297.917 229.403 344.728 182.005 370.908C172.479 376.17 157.447 383.662 125.25 391.673C158.801 385.914 175.333 379.129 184.547 374.008C232.5 347.357 248.458 299.916 271.388 231.756C275.247 220.284 279.307 208.214 283.761 195.537C291.095 174.669 298.53 155.093 310.057 137.954C314.758 130.962 331.85 108.011 359.987 93.1406C331.269 105.326 312.142 128.094 306.923 135.856Z" fill="#A6C7FF"/>
<path d="M186.72 313.875C187.895 306.85 188.328 299.043 187.898 290.304C187.334 278.81 183.964 267.802 178.378 257.99C172.679 247.982 164.666 239.208 154.964 232.422C148.639 227.998 141.589 224.416 133.994 221.888C107.095 212.936 86.7908 217.888 66.1475 229.575C87.8902 220.917 105.599 216.409 132.812 225.467C140.053 227.876 146.775 231.292 152.807 235.512C162.043 241.972 169.672 250.325 175.096 259.852C180.398 269.164 183.596 279.6 184.13 290.483C184.546 298.941 184.13 306.483 182.996 313.255C178.859 337.985 165.378 351.197 146.769 366.936C169.936 349.936 182.395 339.733 186.72 313.875Z" fill="url(#paint3_linear_2113_4)"/>
<path fill-rule="evenodd" clip-rule="evenodd" d="M233.972 184.249C236.516 194.27 234.998 217.842 232.861 228.192C238.956 215.905 241.003 196.577 237.637 183.319C233.751 168.016 224.112 156.713 210.986 148.313C223.028 160.347 230.511 170.609 233.972 184.249Z" fill="#A6C7FF"/>
<path fill-rule="evenodd" clip-rule="evenodd" d="M247.047 192.692C251.92 180.272 257.548 168.118 264.436 156.752C268.306 150.369 272.532 144.32 277.191 138.681C280.303 134.916 289.407 124.176 300.167 114.93C286.187 122.735 276.883 133.108 273.932 136.709C269.293 142.369 265.08 148.423 261.215 154.8C254.448 165.963 248.754 178.109 243.714 190.875C241.891 195.492 237.118 210.163 232.993 228.061C239.202 211.169 244.785 198.459 247.047 192.692Z" fill="#083A9D"/>
<path fill-rule="evenodd" clip-rule="evenodd" d="M210.986 148.313C192.845 170.493 183.868 195.904 204.067 228.488C191.919 194.077 192.792 180.233 210.986 148.313Z" fill="#083A9D"/>
<path fill-rule="evenodd" clip-rule="evenodd" d="M139.91 194.515C145.224 195.202 150.523 196.382 155.728 198.018C160.214 199.428 164.617 201.178 168.888 203.24C181.839 209.494 193.371 219.011 204.068 228.488C196.608 216.684 183.186 205.953 170.529 199.84C166.086 197.694 161.51 195.876 156.852 194.412C151.472 192.721 145.957 191.496 140.383 190.775C123.521 188.591 107.459 190.893 92.8286 200.27C107.054 194.651 124.634 192.537 139.91 194.515Z" fill="#083A9D"/>
<defs>
<linearGradient id="paint0_linear_2113_4" x1="-1379.75" y1="-2333.47" x2="-1266.62" y2="-2613.38" gradientUnits="userSpaceOnUse">
<stop stop-color="#2D5098"/>
<stop offset="0.45" stop-color="#7A97CB"/>
<stop offset="0.46" stop-color="#7C99CC"/>
<stop offset="0.85" stop-color="#FCFDFE"/>
<stop offset="1" stop-color="#CAE0FC"/>
</linearGradient>
<linearGradient id="paint1_linear_2113_4" x1="-2191.46" y1="-1635.77" x2="-2297.71" y2="-1912.49" gradientUnits="userSpaceOnUse">
<stop stop-color="#2E5198"/>
<stop offset="0.46" stop-color="#7F9CCE"/>
<stop offset="0.85" stop-color="white"/>
<stop offset="1" stop-color="#CAE0FC"/>
</linearGradient>
<linearGradient id="paint2_linear_2113_4" x1="-2237.56" y1="-1646.71" x2="-2306.67" y2="-1826.7" gradientUnits="userSpaceOnUse">
<stop stop-color="#003399"/>
<stop offset="0.45" stop-color="#032D82"/>
<stop offset="1" stop-color="#CFE5FF"/>
</linearGradient>
<linearGradient id="paint3_linear_2113_4" x1="-1484.4" y1="-2394.28" x2="-1443.14" y2="-2538.12" gradientUnits="userSpaceOnUse">
<stop stop-color="#083A9D"/>
<stop offset="0.48" stop-color="#2450AC"/>
<stop offset="1" stop-color="#D3E3FF"/>
</linearGradient>
</defs>
</svg>
