<svg width="1569" height="436" viewBox="0 0 1569 436" fill="none" xmlns="http://www.w3.org/2000/svg">
<path d="M50.9482 45.2231L1.47461 73.4044L1.6958 146.809L1.917 220.213L3.83401 228.107C8.84773 248.321 18.5802 265.805 32.8104 279.97C41.5107 288.601 49.3262 294.429 59.8697 299.888C75.0583 307.782 88.2562 311.176 106.173 311.84C123.721 312.504 138.099 309.848 153.287 303.356C161.25 299.888 248.99 249.87 256.879 244.263C272.879 232.976 286.003 215.049 292.27 196.237C297.21 181.187 297.137 182.589 297.137 101.881L297.063 29.1405L287.478 23.6075C282.169 20.5828 277.598 18.0007 277.229 17.8532C276.861 17.7056 258.502 27.8126 236.382 40.2065L196.199 62.8549L195.904 139.284C195.683 223.754 195.904 218.812 190.89 232.755C187.572 241.976 188.015 241.607 180.641 239.837C163.02 235.632 146.356 224.713 135.739 210.328C131.02 203.983 125.269 191.884 123.057 183.695L121.288 177.425L120.919 103.356L120.55 29.288L113.177 24.7879C109.122 22.2796 104.625 19.4762 103.15 18.5909L100.496 16.9679L50.9482 45.2231ZM98.9473 111.914L99.2422 180.376L101.159 187.753C107.574 211.656 120.772 231.205 139.721 245.001C148.568 251.419 163.683 258.649 171.278 260.051C172.752 260.346 174.006 261.01 174.006 261.526C174.006 262.043 171.646 264.699 168.771 267.428C135.887 298.413 83.39 298.265 50.5059 266.985C39.1513 256.141 30.0823 241.091 26.0271 226.115L23.9626 218.738V152.416V86.0935L60.4596 64.8468C80.5145 53.1906 97.3252 43.6001 97.8413 43.6001C98.5786 43.5263 98.7998 58.7973 98.9473 111.914ZM274.28 175.212C271.11 199.926 254.962 222.205 231.885 233.566C224.954 236.96 212.641 241.091 211.83 240.28C211.682 240.132 212.125 238.509 212.788 236.738C213.378 234.968 214.779 230.025 215.885 225.746L217.802 218L218.244 146.809L218.613 75.6914L246.631 59.6088L274.649 43.5263L274.87 106.012C275.017 149.834 274.87 170.564 274.28 175.212Z" fill="#2015FF"/>
<path d="M1048.83 87.864C1027.3 90.2248 1007.09 102.25 995.224 119.734C990.874 126.079 986.671 135.448 984.533 143.71C982.764 150.129 982.616 152.194 982.616 164.146C982.616 176.171 982.764 178.089 984.533 184.802C990.432 206.713 1004.22 224.197 1023.39 233.861C1045.14 244.854 1072.72 244.632 1095.2 233.419C1103.24 229.361 1109.43 225.009 1114.37 219.918C1117.77 216.525 1117.91 216.082 1116.95 214.902C1116.29 214.164 1113.42 210.696 1110.47 207.155L1105.08 200.663L1100.44 204.721C1082.3 220.656 1058.41 225.451 1038.14 217.189C1011.3 206.27 997.657 173.515 1007.83 144.079C1010.78 135.448 1013.95 130.431 1020.88 123.496C1025.82 118.48 1027.96 116.931 1033.79 114.127C1042.26 110.07 1049.12 108.447 1058.34 108.447C1072.79 108.447 1088.35 113.906 1098.01 122.39C1099.85 124.087 1101.62 125.415 1101.84 125.415C1102.06 125.415 1104.86 121.873 1108.11 117.521C1114.89 108.299 1114.89 108.816 1106.93 102.766C1091.74 91.3313 1069.32 85.577 1048.83 87.864Z" fill="white"/>
<path d="M544.136 137.808C544.136 190.483 544.136 190.409 540.007 198.598C537.501 203.467 531.012 210.401 525.409 214.09C516.118 220.066 501.593 222.721 490.313 220.287C474.976 217.041 463.179 206.713 458.092 192.032C456.986 188.86 456.765 182.958 456.617 139.21L456.322 90.0034H445.263H434.203L434.424 141.423C434.719 199.557 434.424 196.089 440.691 208.778C443.567 214.606 445.337 216.967 450.866 222.5C461.041 232.828 472.175 238.509 486.847 240.87C519.363 246.181 549.076 232.533 561.168 206.86C566.698 195.204 566.477 197.343 566.772 140.317L567.067 89.2656H555.638H544.136V137.808Z" fill="white"/>
<path d="M634.089 164.441V239.763H664.245C696.613 239.763 701.553 239.321 711.875 235.853C723.599 231.796 732.446 226.263 740.336 217.779C752.28 205.016 758.178 189.892 759.211 169.679C761.054 132.054 742.842 103.725 710.401 93.4708C701.258 90.5936 695.581 90.151 663.803 89.6346L634.089 89.1919V164.441ZM699.341 112.062C709.221 114.644 715.488 118.185 722.271 124.972C726.843 129.546 728.907 132.276 730.898 136.481C737.976 151.383 738.935 170.343 733.405 186.646C727.949 202.729 716.52 213.131 699.341 217.705C694.106 219.107 691.304 219.328 675.01 219.402L656.577 219.476L656.356 164.588L656.208 109.775L674.788 110.144C690.714 110.439 694.327 110.734 699.341 112.062Z" fill="white"/>
<path d="M1184.86 164.514V239.763H1195.92H1206.98V164.514V89.2657H1195.92H1184.86V164.514Z" fill="white"/>
<path d="M1266.7 99.594V109.922L1292.36 110.07L1317.95 110.291L1318.17 174.99L1318.31 239.763H1329.37H1340.43V174.843V109.922H1366.24H1392.05V99.594V89.2657H1329.37H1266.7V99.594Z" fill="white"/>
<path d="M1430.31 90.5199C1430.68 91.2576 1443.8 110.734 1459.44 133.899L1487.9 175.949V207.819V239.763H1498.96H1510.01V208.188V176.687L1538.77 133.53C1554.55 109.775 1567.53 90.151 1567.53 89.7821C1567.53 89.487 1562 89.2657 1555.21 89.2657L1542.83 89.3395L1521.15 120.619C1509.2 137.882 1499.25 151.973 1499.03 151.973C1498.81 151.899 1488.78 137.882 1476.84 120.767L1455.09 89.6346L1442.33 89.4133C1430.31 89.2657 1429.65 89.3395 1430.31 90.5199Z" fill="white"/>
<path d="M858.674 92.3642C858.084 93.6921 845.624 124.308 830.951 160.457C816.278 196.606 802.933 229.214 801.385 232.902L798.583 239.763H810.527H822.546L829.181 223.312L835.817 206.934L867.153 200.59C884.332 197.048 898.563 194.319 898.784 194.54C899.005 194.688 903.281 205.09 908.369 217.484L917.659 240.132L929.603 240.353C936.165 240.427 941.548 240.427 941.548 240.353C941.548 240.206 927.834 206.418 911.097 165.252L880.646 90.3723L870.176 90.151L859.632 89.9297L858.674 92.3642ZM879.835 147.178C885.07 159.941 889.494 171.006 889.715 171.744C890.01 172.998 888.019 173.515 868.628 177.425C856.831 179.786 847.024 181.556 846.803 181.409C846.435 181.04 869.512 123.939 870.029 123.939C870.25 123.939 874.674 134.415 879.835 147.178Z" fill="white"/>
<path d="M1059.15 318.627C1053.25 321.282 1050.67 326.225 1050.67 334.709V339.357H1047.35H1043.96L1044.18 343.562L1044.4 347.841L1047.5 348.062L1050.67 348.283L1050.82 367.612L1051.04 386.941L1056.42 387.162L1061.73 387.383V367.76V348.21H1067.26H1072.79V343.783V339.357H1067.26H1061.73V336.185C1061.73 331.684 1063.06 327.701 1064.83 326.742C1065.71 326.225 1067.85 326.078 1069.99 326.299L1073.53 326.742V322.758C1073.53 319.586 1073.23 318.627 1072.13 317.963C1069.77 316.782 1062.39 317.077 1059.15 318.627Z" fill="white"/>
<path d="M797.034 354.407V386.572H802.933H808.831V374.473V362.374L817.531 362.005C827.928 361.563 832.13 360.235 836.48 356.03C838.766 353.89 840.019 351.898 840.831 349.021C843.927 338.398 839.946 328.66 830.729 324.528C827.19 322.905 825.789 322.758 812.002 322.537L797.034 322.315V354.407ZM825.273 333.234C828.37 335.078 829.476 337.365 829.476 342.382C829.476 347.472 827.338 351.087 823.577 352.415C822.177 352.931 818.269 353.3 814.951 353.3L808.831 353.374V342.234V331.021L815.836 331.463C820.776 331.758 823.577 332.275 825.273 333.234Z" fill="white"/>
<path d="M1117.84 326.963C1109.29 353.448 1099.33 385.244 1099.33 386.129C1099.33 387.162 1100.59 387.31 1107.81 387.31H1116.22L1117.03 384.137C1117.47 382.441 1118.28 379.711 1118.8 378.088L1119.76 375.137L1130.23 374.916C1138.19 374.768 1140.7 374.916 1140.99 375.653C1141.14 376.17 1141.95 379.047 1142.83 381.924L1144.38 387.31H1153.89C1162.52 387.31 1163.48 387.162 1163.48 385.982C1163.48 385.318 1158.98 370.784 1153.6 353.743L1143.72 322.758L1131.55 322.537L1119.39 322.389L1117.84 326.963ZM1133.47 348.726C1135.02 354.333 1136.42 359.645 1136.71 360.53C1137.08 362.227 1137.01 362.227 1130.3 362.227C1123.59 362.227 1123.52 362.227 1123.88 360.53C1126.24 351.456 1130 338.619 1130.3 338.619C1130.52 338.619 1131.92 343.193 1133.47 348.726Z" fill="white"/>
<path d="M939.336 334.119V339.283L936.239 339.504L933.068 339.726V343.783V347.841L936.239 348.062L939.336 348.284V362.817C939.336 378.383 939.925 381.334 943.612 384.58C947.004 387.678 954.377 388.859 959.169 387.236C961.455 386.424 961.529 386.351 961.307 382.293L961.086 378.162L957.4 378.309C950.838 378.678 950.764 378.604 950.543 362.3L950.321 348.21H955.483H960.718V343.783V339.357H955.556H950.395V334.193V329.029H944.865H939.336V334.119Z" fill="white"/>
<path d="M1389.83 334.193V339.357H1386.88H1383.93V344.89V350.423H1386.88H1389.83V363.333C1389.83 373.366 1390.05 376.908 1391.01 379.047C1393.67 385.465 1399.71 388.564 1408.19 387.826C1415.79 387.162 1415.64 387.383 1415.64 380.301V374.178L1412.39 374.547C1409.81 374.842 1408.86 374.621 1407.6 373.366C1406.2 371.965 1406.05 371.006 1406.05 361.12V350.423H1410.85H1415.64V344.89V339.357H1410.85H1406.05V334.193V329.029H1397.94H1389.83V334.193Z" fill="white"/>
<path d="M1185.67 338.693C1177.63 340.242 1170.56 346.07 1167.9 353.226C1166.57 356.767 1166.35 358.612 1166.57 364.809C1166.8 371.448 1167.09 372.629 1169.08 376.244C1173.28 383.695 1181.39 388.047 1191.2 388.047C1197.1 388.047 1203.74 386.277 1207.27 383.695C1210.74 381.26 1214.06 375.653 1214.79 371.227L1215.31 368.129H1207.86H1200.49L1199.61 370.711C1198.5 373.957 1196.07 375.653 1192.31 375.801C1185.97 375.949 1183.24 372.26 1183.16 363.776C1183.09 355.218 1185.89 351.161 1191.72 351.161C1195.48 351.161 1197.32 352.267 1198.57 355.292L1199.61 357.8H1207.35H1215.09L1214.65 355.735C1212.44 345.554 1207.27 340.611 1197.03 338.693C1192.16 337.808 1190.32 337.808 1185.67 338.693Z" fill="white"/>
<path d="M1239.42 338.619C1231.02 340.39 1223.72 346.365 1221.21 353.595C1219.22 359.35 1219.44 369.53 1221.58 374.399C1225.93 383.916 1235.15 388.711 1247.53 387.826C1257.93 387.162 1265.37 381.998 1267.44 374.252C1267.96 372.26 1268.47 370.12 1268.69 369.383C1268.99 368.276 1268.25 368.129 1261.25 368.129C1253.95 368.129 1253.43 368.202 1253.43 369.604C1253.43 370.416 1252.47 372.112 1251.37 373.44C1249.52 375.432 1248.71 375.727 1245.76 375.727C1239.5 375.727 1236.62 371.965 1236.55 363.555C1236.4 355.44 1239.64 351.161 1245.69 351.161C1247.68 351.161 1248.93 351.751 1250.55 353.3C1251.73 354.48 1252.69 356.03 1252.69 356.62C1252.69 357.653 1253.87 357.8 1260.43 357.8H1268.18V355.735C1268.1 350.128 1262.13 342.455 1256.01 340.168C1251.44 338.472 1243.85 337.734 1239.42 338.619Z" fill="white"/>
<path d="M1289.56 339.578C1278.57 343.341 1273.34 351.013 1273.34 363.407C1273.34 371.965 1275.11 376.539 1280.34 381.334C1285.87 386.351 1290 387.678 1299.88 387.678C1306.15 387.678 1308.29 387.383 1310.94 386.129C1315.81 383.842 1319.05 380.818 1320.97 376.612C1323.92 370.416 1323.84 370.342 1315.73 370.342H1308.66L1305.85 373.293C1303.42 375.875 1302.68 376.244 1299.81 376.244C1294.57 376.244 1291.03 373.514 1289.85 368.645L1289.41 366.653H1306.15H1322.96L1322.59 360.456C1322 349.39 1316.91 342.308 1307.4 339.357C1301.28 337.439 1295.53 337.513 1289.56 339.578ZM1304.45 351.013C1305.26 351.751 1306.15 353.595 1306.52 355.071L1307.11 357.8H1298.7C1289.41 357.8 1289.19 357.653 1291.48 353.3C1293.61 349.095 1301.21 347.693 1304.45 351.013Z" fill="white"/>
<path d="M1357.39 338.545C1354 339.578 1350.98 341.496 1348.99 343.783L1347.07 346.144V342.75V339.357H1338.59H1330.11V362.964V386.572H1338.59H1347.07V371.448V356.325L1349.13 353.964C1350.98 351.972 1351.79 351.677 1354.66 351.677C1361.08 351.677 1361.82 353.816 1361.82 372.702V386.572H1369.93H1378.04V369.383C1378.04 349.169 1377.45 346.218 1372.95 342.086C1368.82 338.324 1362.7 336.996 1357.39 338.545Z" fill="white"/>
<path d="M1535.01 338.84C1527.42 340.98 1522.33 345.333 1518.94 352.636C1517.39 356.03 1517.09 357.8 1517.09 363.407C1517.02 369.456 1517.24 370.489 1519.45 374.989C1523.51 383.252 1530.37 387.162 1541.72 387.826C1554.62 388.564 1564.36 382.588 1566.42 372.702L1566.94 370.342H1559.19C1551.82 370.342 1551.53 370.415 1550.72 372.112C1549.31 375.211 1546.59 376.465 1542.38 376.096C1537.96 375.653 1534.64 372.924 1533.9 369.014L1533.46 366.653H1550.13H1566.79V362.448C1566.79 348.136 1558.01 338.693 1544.08 338.103C1540.91 338.029 1536.93 338.324 1535.01 338.84ZM1546.07 349.759C1548.5 350.644 1550.57 353.595 1550.57 356.325C1550.57 357.726 1550.13 357.8 1542.09 357.8C1537.44 357.8 1533.61 357.653 1533.61 357.431C1533.61 355.587 1536.19 351.677 1538.18 350.423C1540.98 348.726 1542.68 348.579 1546.07 349.759Z" fill="white"/>
<path d="M860.296 339.431C857.199 340.316 852.038 344.521 850.564 347.398C849.974 348.431 849.31 350.423 849.015 351.677L848.499 354.112H853.955H859.411L860.37 351.53C861.476 348.357 864.351 346.734 868.923 346.734C871.724 346.734 872.757 347.103 874.526 348.874C876.296 350.718 876.664 351.603 876.664 354.776V358.538H871.651C861.181 358.538 852.997 361.194 849.531 365.768C846.73 369.456 846.361 376.834 848.794 380.965C851.301 385.318 856.388 387.678 863.024 387.678C868.407 387.605 871.651 386.498 875.042 383.4L876.664 381.924V384.211V386.572H882.194H887.724V368.276C887.724 350.497 887.65 349.833 886.028 346.661C884.922 344.521 883.079 342.677 880.793 341.201C877.549 339.209 876.517 338.988 870.102 338.841C866.195 338.767 861.844 339.062 860.296 339.431ZM876.664 369.825C876.664 372.186 876.222 374.326 875.485 375.432C873.936 377.572 868.923 379.859 865.752 379.932C862.877 379.932 859.338 378.235 858.674 376.612C857.937 374.547 858.158 370.711 859.19 369.383C860.591 367.317 865.531 365.989 871.356 365.915H876.664V369.825Z" fill="white"/>
<path d="M920.903 339.578C919.502 340.021 916.921 341.791 915.225 343.562L912.055 346.661V343.046V339.357H906.525H900.995V363.333V387.31H906.525H912.055V372.702C912.055 360.309 912.276 357.8 913.382 355.661C915.152 352.12 917.585 350.57 922.967 349.538L927.538 348.652V343.636C927.538 338.619 927.538 338.619 925.548 338.693C924.368 338.767 922.303 339.136 920.903 339.578Z" fill="white"/>
<path d="M1007.17 339.283C996.477 342.751 990.21 351.677 990.21 363.333C990.21 375.727 996.551 384.064 1008.13 387.015C1020.44 390.187 1033.12 384.064 1037.32 372.924C1038.73 369.235 1038.95 367.391 1038.73 361.858C1038.43 354.112 1036.73 349.98 1032.16 345.406C1027.59 340.759 1023.39 339.136 1015.65 338.914C1012.03 338.767 1008.2 338.914 1007.17 339.283ZM1020.73 349.169C1022.43 350.128 1024.27 351.972 1025.16 353.743C1027 357.358 1027.59 365.399 1026.34 369.973C1024.27 377.276 1016.61 381.039 1009.53 378.088C1005.55 376.391 1003.56 374.178 1002.38 370.047C999.648 360.973 1002.67 351.235 1008.94 348.505C1012.48 347.029 1017.42 347.251 1020.73 349.169Z" fill="white"/>
<path d="M1505.96 339.726C1504.26 340.316 1501.68 342.16 1499.91 344.152L1496.74 347.619V343.488V339.357H1488.63H1480.52V362.964V386.572H1488.56H1496.6L1496.89 373.809C1497.04 363.186 1497.33 360.751 1498.44 359.054C1500.13 356.399 1503.45 354.776 1508.25 354.333L1512.23 353.89V346.292C1512.23 337.586 1512.15 337.513 1505.96 339.726Z" fill="white"/>
<path d="M1423.01 356.989C1423.01 370.932 1423.23 375.285 1424.12 377.793C1426.33 384.064 1432.08 387.974 1439.09 388.047C1443.95 388.047 1447.64 386.498 1451.25 383.031L1453.98 380.375V383.473V386.572H1462.09H1470.2V362.964V339.357H1462.16H1454.05L1453.83 355.218L1453.61 371.08L1451.69 372.924C1449.26 375.358 1445.06 376.096 1442.63 374.473C1439.82 372.703 1439.23 369.014 1439.23 353.521V339.357H1431.12H1423.01V356.989Z" fill="white"/>
</svg>
