<?xml version="1.0" encoding="UTF-8"?><svg id="Layer_1" xmlns="http://www.w3.org/2000/svg" viewBox="0 0 1064 295.4"><defs><style>.cls-1{fill-rule:evenodd;}.cls-1,.cls-2{fill:#fff;stroke-width:0px;}</style></defs><path class="cls-1" d="M16.1,58.3l50.7-29.4v82.5c-.1,30.6,21.4,58,51,65.2l.7.2-.4.5c-.7.9-1.3,1.7-2.1,2.5-2.7,2.7-5.6,5.1-8.8,7.2-3.2,2.1-6.5,3.9-10,5.4h0c-3.6,1.5-7.3,2.6-11.1,3.4-4,.8-7.4,1.2-11.1,1.2h-.4c-4,0-8-.4-11.9-1.2-3.8-.8-7.5-1.9-11.1-3.5-3.5-1.5-6.9-3.3-10-5.4-3.1-2.1-6.1-4.5-8.7-7.2-2.7-2.7-5.1-5.6-7.2-8.7-2.1-3.2-3.9-6.5-5.4-10s-2.6-7.2-3.4-11c-.8-4.1-.9-8.3-.9-11.9V58.6l.1-.3ZM143.6,162.3c2.9-8.2,4.4-16.3,4.5-23.9V51.2l38.4-22v82.5c0,3.7-.4,7.3-1,10.5-.7,3.3-1.7,6.6-3.1,9.8-1.3,3.1-3,6.1-4.9,8.8-1.9,2.8-4.1,5.4-6.4,7.7-2.4,2.4-5,4.5-7.8,6.4s-5.8,3.5-8.9,4.8c-3.2,1.4-6.1,2.3-9.8,3-.1,0-.3,0-.4.1l-.7.1.1-.6ZM.8,50.3v87.5c-.1,40.5,32.9,73.6,73.7,73.7h.2c12.9,0,25.7-3.4,36.8-9.8l53.9-30.8c22.3-11.5,36.3-34.2,36.3-59.2V20.3c0-.3-.1-.5-.4-.6h0l-13.2-7.7c-.2-.1-.5-.1-.7,0l-54.1,30.4c-.2.1-.4.4-.4.6v95.2c0,4-.4,8-1.2,11.9-.8,3.8-2,7.5-3.5,11-.3.7-.6,1.3-.9,2l-.1.3h-.3c-.9-.1-1.5-.2-3.1-.5l-.4-.1c-3.4-.7-10.3-2.6-18.5-7.9-2.8-1.9-5.4-4-7.8-6.4-2.4-2.4-4.5-5-6.4-7.8s-3.5-5.8-4.8-8.9-2.3-6.4-3-9.8c-.6-3-.9-6.1-.8-10.4V20.3c0-.3-.1-.5-.4-.6l-13.2-8c-.1-.1-.3-.1-.4-.1s-.3,0-.4.1L1.1,49.7c-.2.1-.3.4-.3.6Z"/><path class="cls-1" d="M369.2,122.5c0,15.4-13.2,27.4-30,27.4s-29.6-11.8-29.6-27.4v-61.8h-15.2v62c0,23.9,18.8,41.2,44.8,41.2s45.2-17.3,45.2-41.2v-62.1h-15.2v61.9Z"/><path class="cls-1" d="M499.8,111.6c0,23.3-13.8,37.2-36.9,37.2l-17.8-.1v-74.2h17.8c23.1,0,36.9,13.8,36.9,37.1ZM463.8,60.7l-33.7-.1h-.2v102h33.8c31.1,0,51.3-20,51.3-51-.2-30.9-20.2-50.9-51.2-50.9Z"/><path class="cls-1" d="M1046.3,60.6l-29.7,42.8-29.9-42.7-.1-.1h-17.1l39.5,58.5v43.5h15.2v-43.4l38.8-58.2.2-.4h-16.9Z"/><path class="cls-1" d="M858.9,74.5h34.9v88.1h15.2v-88.1h34.9v-13.9h-85v13.9Z"/><path class="cls-1" d="M803.4,162.6h15.2V60.6h-15.2v102Z"/><path class="cls-1" d="M747.2,137.9c-.1.1-11.4,12-29.4,12-20.9,0-36.7-16.8-36.7-39.1s15.7-37.6,36.4-37.6c16.8,0,27.5,9.8,27.6,9.9l2.2,2,8.1-11.1-1.5-1.6c-.5-.5-12.7-13.3-36.6-13.3-29.3.3-51.3,22.5-51.3,51.9s22.2,52.9,51.7,52.9c24.7,0,38.3-15.2,38.9-15.8l1.5-1.6-8.8-10.7-2.1,2.1Z"/><path class="cls-1" d="M603.9,117.2l-30.2,6.1,16.3-40,13.9,33.9ZM597,60.7h-13.9l-41.5,101.9h16l9.2-22.5,42.8-8.7,12.7,31.1.1.2h16l-41.4-101.9v-.1Z"/><path class="cls-2" d="M540.4,218.3h14.1c2.5,0,4.7.3,6.7.8,2,.6,3.7,1.4,5.1,2.5,1.4,1.1,2.5,2.5,3.3,4.2s1.2,3.7,1.2,6v.2c0,2.3-.4,4.3-1.2,6s-1.9,3-3.3,4.1c-1.4,1.1-3.1,1.9-5.1,2.4s-4.1.8-6.5.8h-6.1v16.7h-8.2v-43.7ZM554.5,239.5c2.7,0,4.8-.6,6.2-1.9,1.4-1.3,2.1-3.1,2.1-5.6v-.2c0-2.6-.7-4.5-2.2-5.6s-3.5-1.7-6.1-1.7h-5.9v15h5.9Z"/><path class="cls-2" d="M585.2,262.7c-1.5,0-2.9-.2-4.2-.6-1.3-.4-2.4-.9-3.4-1.7s-1.7-1.7-2.3-2.9c-.6-1.2-.9-2.6-.9-4.3,0-1.9.4-3.5,1.3-4.8s2-2.3,3.5-3.1,3.2-1.4,5.2-1.7c2-.4,4.1-.6,6.4-.6h4v-1.7c0-2.2-.4-3.8-1.3-4.9-.8-1.1-2.4-1.6-4.6-1.6-2,0-3.4.4-4.4,1.3-1,.9-1.5,2.1-1.7,3.8h-7.2c.2-1.9.6-3.5,1.4-4.8s1.8-2.4,3-3.3c1.2-.9,2.6-1.5,4.2-1.9s3.3-.6,5.1-.6,3.5.2,5,.6c1.6.4,2.9,1,4.1,2,1.2.9,2.1,2.1,2.7,3.6.7,1.5,1,3.3,1,5.5v21h-7.3v-3.9c-1.1,1.4-2.4,2.5-3.9,3.3-1.3.9-3.3,1.3-5.7,1.3ZM586.9,257.4c2.3,0,4.2-.6,5.7-1.7,1.5-1.1,2.2-2.7,2.2-4.8v-3.2h-3.8c-2.8,0-5.1.4-6.7,1.1-1.7.8-2.5,2.1-2.5,4.1,0,1.3.4,2.4,1.2,3.2.8.9,2.1,1.3,3.9,1.3Z"/><path class="cls-2" d="M611,230h7.4v6c1-2,2.3-3.6,4-4.8,1.6-1.1,3.8-1.7,6.5-1.7v6.9c-1.6,0-3.1.2-4.4.5s-2.4.8-3.3,1.5-1.6,1.6-2.1,2.7c-.5,1.1-.7,2.5-.7,4.3v16.7h-7.4v-32.1Z"/><path class="cls-2" d="M646.8,262.7c-3.2,0-5.6-.8-7.2-2.5-1.6-1.6-2.5-4-2.5-7.1v-17.5h-4.3v-5.5h4.3v-7h7.4v7h7v5.5h-7v16.9c0,1.4.3,2.5.9,3.1.6.7,1.5,1,2.7,1,1.4,0,2.6-.2,3.6-.6v5.9c-.6.2-1.3.4-2.1.6-.7.1-1.6.2-2.8.2Z"/><path class="cls-2" d="M687.9,262.7c-2.4,0-4.6-.4-6.6-1.2s-3.7-1.9-5.2-3.3c-1.5-1.4-2.6-3.1-3.4-5.1s-1.2-4.2-1.2-6.7v-.5c0-2.5.4-4.8,1.3-6.8.8-2,2-3.8,3.5-5.2,1.5-1.5,3.2-2.6,5.2-3.4,2-.8,4.2-1.2,6.6-1.2s4.5.4,6.5,1.2,3.7,1.9,5.2,3.3c1.5,1.5,2.6,3.2,3.5,5.2.8,2,1.3,4.2,1.3,6.7v.5c0,2.5-.4,4.8-1.3,6.8-.8,2-2,3.8-3.5,5.2-1.5,1.5-3.2,2.6-5.2,3.3-2.2.8-4.3,1.2-6.7,1.2ZM687.9,256.9c2.8,0,4.9-.9,6.5-2.8,1.6-1.9,2.3-4.5,2.3-7.8v-.4c0-3.3-.8-5.9-2.3-7.8s-3.7-2.8-6.5-2.8-5,.9-6.5,2.8c-1.6,1.9-2.4,4.5-2.4,7.8v.5c0,3.3.8,5.9,2.3,7.8,1.6,1.7,3.8,2.7,6.6,2.7Z"/><path class="cls-2" d="M712.6,235.6h-4.4v-5.5h4.4v-4.3c0-3.6.9-6.3,2.8-8.1s4.5-2.8,8-2.8c.9,0,1.7.1,2.3.2.6.1,1.3.3,2,.5v5.8c-.5-.2-1-.3-1.5-.4-.6-.1-1.2-.2-1.9-.2-1.5,0-2.6.4-3.2,1.3-.7.9-1,2-1,3.4v4.6h7.3v5.5h-7.3v26.5h-7.4v-26.5h-.1Z"/><path class="cls-2" d="M759.2,218.3h16.2l13.9,43.8h-13.3l-2.3-8.2h-14.5l-2.3,8.2h-11.7l14-43.8ZM761.7,245.3h9.6l-4.8-16.9-4.8,16.9Z"/><path class="cls-2" d="M807.8,262.8c-2.4,0-4.6-.3-6.7-1-2-.7-3.8-1.7-5.3-3.1-1.5-1.3-2.7-3-3.6-5.1-.9-2-1.3-4.4-1.3-7.1v-.5c0-2.7.4-5,1.3-7.1s2.1-3.8,3.7-5.3c1.6-1.4,3.4-2.5,5.4-3.3,2.1-.8,4.3-1.1,6.7-1.1,2,0,3.9.2,5.7.7,1.8.5,3.4,1.2,4.9,2.2,1.4,1.1,2.6,2.4,3.5,4.1s1.5,3.7,1.6,6.2h-10.3c-.2-1.5-.8-2.7-1.6-3.5-.8-.8-2-1.2-3.6-1.2-2,0-3.5.7-4.5,2.1-1.1,1.4-1.6,3.4-1.6,6.1v.5c0,2.8.5,4.9,1.6,6.3,1.1,1.4,2.6,2.1,4.7,2.1,1.6,0,2.8-.5,3.8-1.3s1.6-2.2,1.8-4h9.9c-.2,4-1.6,7.3-4.3,9.7-2.6,2.4-6.6,3.6-11.8,3.6Z"/><path class="cls-2" d="M844.1,262.8c-2.4,0-4.6-.3-6.7-1-2-.7-3.8-1.7-5.3-3.1-1.5-1.3-2.7-3-3.6-5.1-.9-2-1.3-4.4-1.3-7.1v-.5c0-2.7.4-5,1.3-7.1s2.1-3.8,3.7-5.3c1.6-1.4,3.4-2.5,5.4-3.3,2.1-.8,4.3-1.1,6.7-1.1,2,0,3.9.2,5.7.7s3.4,1.2,4.9,2.2c1.4,1.1,2.6,2.4,3.5,4.1s1.5,3.7,1.6,6.2h-10.3c-.2-1.5-.8-2.7-1.6-3.5s-2-1.2-3.6-1.2c-2,0-3.5.7-4.5,2.1-1.1,1.4-1.6,3.4-1.6,6.1v.5c0,2.8.5,4.9,1.6,6.3,1.1,1.4,2.6,2.1,4.7,2.1,1.6,0,2.8-.5,3.8-1.3s1.6-2.2,1.8-4h9.9c-.2,4-1.6,7.3-4.3,9.7s-6.6,3.6-11.8,3.6Z"/><path class="cls-2" d="M880.8,262.8c-2.5,0-4.9-.4-7-1.1-2.1-.7-3.9-1.8-5.5-3.2s-2.8-3.1-3.6-5.1c-.9-2-1.3-4.4-1.3-7v-.5c0-2.6.4-4.9,1.3-7s2.1-3.8,3.7-5.3c1.6-1.5,3.4-2.6,5.5-3.4,2.1-.8,4.4-1.2,6.8-1.2,2.2,0,4.3.3,6.3,1s3.7,1.7,5.2,3,2.6,3.1,3.5,5.1c.9,2.1,1.3,4.6,1.3,7.4v2.9h-22.6c.2,2.1.8,3.8,2,4.9,1.2,1.2,2.7,1.7,4.7,1.7,1.8,0,3.2-.4,4-1.1.8-.7,1.4-1.6,1.6-2.7h10.3c-.5,3.6-2.1,6.4-4.8,8.4-2.7,2.3-6.5,3.2-11.4,3.2ZM886.4,242.4c-.1-2-.6-3.5-1.5-4.5s-2.3-1.5-4.1-1.5c-1.7,0-3,.5-4.1,1.5s-1.7,2.5-2,4.5h11.7Z"/><path class="cls-2" d="M902.3,230h11v5.2c.9-1.7,2.2-3.1,3.9-4.3s4-1.8,6.7-1.8c3.1,0,5.6,1,7.6,3,1.9,2,2.9,5,2.9,9.1v20.8h-11v-18.6c0-1.8-.4-3.2-1.1-4.1-.7-.9-1.9-1.3-3.5-1.3s-3,.5-4,1.5-1.5,2.5-1.5,4.6v17.9h-11v-32h0Z"/><path class="cls-2" d="M953.8,262.8c-3.6,0-6.4-.9-8.4-2.7-1.9-1.8-2.9-4.6-2.9-8.4v-14.3h-3.9v-7.5h3.9v-6.7h11v6.7h6.3v7.5h-6.3v13.2c0,1.1.3,1.9.8,2.5.6.6,1.4.9,2.4.9.6,0,1.2,0,1.7-.1s1-.2,1.5-.4v8.3c-.7.2-1.6.4-2.6.6-1,.3-2.2.4-3.5.4Z"/><path class="cls-2" d="M975.9,262.8c-1.6,0-3-.2-4.3-.7s-2.4-1.2-3.4-2.2-1.7-2.2-2.3-3.7c-.6-1.5-.8-3.3-.8-5.3v-20.9h11v19.1c0,1.8.4,3.1,1.1,4,.8.9,1.9,1.3,3.4,1.3,1.7,0,3-.5,4-1.5s1.5-2.5,1.5-4.6v-18.5h11v32.1h-11v-5c-.9,1.7-2.1,3-3.7,4.1-1.6,1.3-3.8,1.8-6.5,1.8Z"/><path class="cls-2" d="M1004.1,230h11v6.4c1-2.4,2.4-4.2,4.1-5.2,1.7-1.1,3.8-1.6,6.3-1.6v10.2c-3.4-.1-5.9.4-7.7,1.5s-2.7,2.9-2.7,5.5v15.2h-11v-32Z"/><path class="cls-2" d="M1046.2,262.8c-2.5,0-4.9-.4-7-1.1-2.1-.7-3.9-1.8-5.5-3.2s-2.8-3.1-3.6-5.1c-.9-2-1.3-4.4-1.3-7v-.5c0-2.6.4-4.9,1.3-7,.9-2.1,2.1-3.8,3.7-5.3,1.6-1.5,3.4-2.6,5.5-3.4,2.1-.8,4.4-1.2,6.8-1.2,2.2,0,4.3.3,6.3,1s3.7,1.7,5.2,3,2.6,3.1,3.5,5.1c.9,2.1,1.3,4.6,1.3,7.4v2.9h-22.6c.2,2.1.8,3.8,2,4.9,1.2,1.2,2.7,1.7,4.7,1.7,1.8,0,3.2-.4,4-1.1.8-.7,1.4-1.6,1.6-2.7h10.3c-.5,3.6-2.1,6.4-4.8,8.4-2.8,2.3-6.6,3.2-11.4,3.2ZM1051.7,242.4c-.1-2-.6-3.5-1.5-4.5s-2.3-1.5-4.1-1.5c-1.7,0-3,.5-4.1,1.5s-1.7,2.5-2,4.5h11.7Z"/></svg>